<?xml version="1.0" encoding="UTF-8"?>
<svg id="root" xmlns="http://www.w3.org/2000/svg" viewBox="0 0 296.99 92.78" fill="currentColor">
  <defs>
    <style>
      :root {
        color: white;
      }
    </style>
  </defs>
  <path d="M28.78,1.13v26.79h-1.33l-.07-1.19c-.49-7.34-1.49-13.09-3.02-17.24-1.53-4.16-3.5-6.52-5.94-7.1v88.01h4.84v1.26H5.64v-1.26h4.71V2.39c-2.61.84-4.67,3.49-6.17,7.96-1.55,4.6-2.5,10.46-2.85,17.58H0V1.13h28.78Z"/>
  <path d="M60.82,1.13v26.86h-1.26c-.84-9.77-2.28-16.58-4.31-20.43-1.06-1.94-2.28-3.28-3.65-4.01-1.37-.73-3.56-1.12-6.57-1.16v39.53c2.17-.09,3.85-.66,5.04-1.72,1.19-1.06,2.09-2.81,2.69-5.24.6-2.43,1.03-6.19,1.29-11.27h1.26v39.46h-1.26l-.07-1.92c-.35-5.39-.79-9.29-1.29-11.67-.51-2.39-1.35-4.03-2.52-4.94-1.17-.91-2.89-1.4-5.14-1.49v47.29c2.65-.22,4.74-.82,6.27-1.79,1.53-.97,2.82-2.61,3.88-4.91,2.21-4.78,3.6-12.67,4.18-23.68h1.26v31.64h-28.45v-1.26h4.71V2.39h-4.71v-1.26h28.65Z"/>
  <path d="M99.88,1.13v1.26c-1.9.31-3.41,1.37-4.51,3.18-1.11,1.81-2.17,4.91-3.18,9.28l-5.97,25.2,11.01,50.34h3.51v1.26h-15.92v-1.26h4.44l-9.02-40.19-5.9,24.8c-.97,4.07-1.46,7.36-1.46,9.88,0,1.59.4,2.81,1.19,3.65.8.84,2.19,1.46,4.18,1.86v1.26h-13.4v-1.26c2.08-.57,3.49-1.5,4.24-2.79.62-.97,1.39-3.09,2.32-6.37.93-3.32,1.53-5.5,1.79-6.57l6.37-27.46L69.7,2.39h-3.58v-1.26h15.85v1.26h-4.38l8.03,34.95v-.46l5.44-22.88c.62-2.39.93-4.49.93-6.3,0-2.92-1.81-4.69-5.44-5.31v-1.26h13.33Z"/>
  <path d="M121.57.07l11.54,90.33h3.65v1.26h-15.78v-1.26h3.65l-2.79-25.2h-9.75l-1.46,11.34c-.49,3.63-.73,6.23-.73,7.83,0,1.9.44,3.29,1.33,4.18.88.89,2.34,1.5,4.38,1.86v1.26h-13.46v-1.26c2.3-.53,3.87-1.61,4.71-3.25.84-1.64,1.66-5.19,2.45-10.68L120.24.07h1.33ZM117.52,26.33l-5.24,37.6h9.48l-4.24-37.6Z"/>
  <path d="M165.87,1.13v26.73h-1.26c-1.06-8.49-2.59-14.98-4.58-19.47-1.99-4.49-4.29-6.73-6.9-6.73-1.86,0-3.37.91-4.54,2.72-1.17,1.81-1.76,4.13-1.76,6.96,0,1.86.15,3.57.46,5.14.31,1.57.92,3.6,1.82,6.1.91,2.5,1.93,4.94,3.08,7.33,1.15,2.39,3.12,6.26,5.9,11.61,3.98,7.52,6.57,13.49,7.76,17.91,1.33,4.77,1.99,9.11,1.99,13,0,5.75-1.05,10.5-3.15,14.26-2.1,3.76-4.76,5.64-7.99,5.64-1.59,0-2.93-.36-4.01-1.09-1.08-.73-2.4-2.16-3.95-4.28-1.24-1.77-2.17-2.65-2.79-2.65-.8,0-1.36.49-1.69,1.46-.33.97-.59,2.94-.76,5.9h-1.19v-31.64h1.19c.8,7.34,2.1,13.86,3.91,19.56,2.43,7.65,5.44,11.47,9.02,11.47,1.9,0,3.43-.98,4.58-2.95,1.15-1.97,1.72-4.65,1.72-8.06,0-4.47-1.3-10.06-3.91-16.78-1.68-4.16-4.38-9.99-8.09-17.51-2.08-4.07-3.75-7.71-5.01-10.94-1.26-3.23-2.17-6.18-2.72-8.85-.55-2.67-.83-5.27-.83-7.79,0-3.49.46-6.58,1.39-9.25.93-2.67,2.2-4.76,3.81-6.27,1.61-1.5,3.46-2.25,5.54-2.25,2.7,0,5.17,1.55,7.43,4.64l1.06,1.46c.57.75,1.08,1.13,1.53,1.13.57,0,.96-.36,1.16-1.09.2-.73.36-2.33.5-4.81v-.6h1.26Z"/>
  <path d="M196.38,1.13v26.73h-1.06c-.84-6.94-2.1-13.49-3.78-19.63-.71-2.65-1.39-4.49-2.06-5.5-.66-1.02-1.48-1.53-2.45-1.53-1.33,0-2.29.85-2.88,2.55-.6,1.7-1.01,4.95-1.23,9.75-.22,4.8-.33,12.48-.33,23.05,0,12.43.11,23.1.33,32.03.13,5.79.3,9.97.5,12.53.2,2.56.47,4.62.83,6.17.66,2.83,1.86,4.24,3.58,4.24,2.39,0,4.4-2.79,6.04-8.36.75-2.56,1.33-5.44,1.72-8.62.4-3.18.62-7.56.66-13.13l.07-1.33h1.19v1.39c-.04,9.33-.84,16.69-2.39,22.09-.88,3.1-1.96,5.41-3.22,6.93-1.26,1.53-2.69,2.29-4.28,2.29-3.23,0-6.08-2.79-8.56-8.36-1.64-3.85-3.01-9.57-4.11-17.18-1.11-7.6-1.66-14.92-1.66-21.95,0-7.78.63-15.53,1.89-23.25,1.26-7.72,2.82-13.23,4.68-16.55,1.99-3.67,4.29-5.5,6.9-5.5,2.21,0,3.98,1.5,5.31,4.51l.4.86c.31.75.71,1.13,1.19,1.13,1.06,0,1.61-1.79,1.66-5.37h1.06Z"/>
  <path d="M218.33.07l11.54,90.33h3.65v1.26h-15.78v-1.26h3.65l-2.79-25.2h-9.75l-1.46,11.34c-.49,3.63-.73,6.23-.73,7.83,0,1.9.44,3.29,1.33,4.18.88.89,2.34,1.5,4.38,1.86v1.26h-13.46v-1.26c2.3-.53,3.87-1.61,4.71-3.25.84-1.64,1.66-5.19,2.45-10.68L217.01.07h1.33ZM214.29,26.33l-5.24,37.6h9.48l-4.24-37.6Z"/>
  <path d="M255.47,1.13v1.46h-5.24v87.81c2.74-.31,4.91-1.19,6.5-2.65,1.59-1.46,2.83-3.67,3.71-6.63,1.68-5.53,2.74-12.56,3.18-21.09h1.26v31.64h-27.52v-1.26h4.71V2.39h-4.71v-1.26h18.11Z"/>
  <path d="M296.99,1.13v26.86h-1.26c-.84-9.77-2.28-16.58-4.31-20.43-1.06-1.94-2.28-3.28-3.65-4.01-1.37-.73-3.56-1.12-6.57-1.16v39.53c2.17-.09,3.85-.66,5.04-1.72,1.19-1.06,2.09-2.81,2.69-5.24.6-2.43,1.03-6.19,1.29-11.27h1.26v39.46h-1.26l-.07-1.92c-.35-5.39-.79-9.29-1.29-11.67-.51-2.39-1.35-4.03-2.52-4.94-1.17-.91-2.89-1.4-5.14-1.49v47.29c2.65-.22,4.74-.82,6.27-1.79,1.53-.97,2.82-2.61,3.88-4.91,2.21-4.78,3.6-12.67,4.18-23.68h1.26v31.64h-28.45v-1.26h4.71V2.39h-4.71v-1.26h28.65Z"/>
</svg>