<?xml version="1.0" encoding="UTF-8"?>
<svg xmlns="http://www.w3.org/2000/svg">
  <defs>

    <symbol
      id="circuits"
      viewBox="0 0 606 739"
      style="fill: currentColor;"
    >
        <path d="M212.744 600.926C212.267 600.176 211.686 599.545 211.068 599.043L271.953 548.686C272.18 549.512 272.526 550.337 273.003 551.087C273.48 551.836 274.061 552.468 274.679 552.97L213.793 603.326C213.567 602.501 213.221 601.675 212.744 600.926Z" />
        <path d="M213.694 617.603C218.79 613.355 220.486 605.8 218.047 599.755C217.743 598.941 217.332 598.149 216.861 597.406C216.39 596.664 215.86 595.971 215.278 595.388C211.001 590.842 204.209 590.361 199.112 594.609C193.362 599.402 191.95 608.456 195.979 614.811C200.009 621.165 207.943 622.396 213.694 617.603ZM201.882 598.976C204.757 596.58 208.546 596.626 211.193 598.793C211.82 599.304 212.41 599.948 212.895 600.712C213.379 601.476 213.731 602.318 213.962 603.16C214.943 606.715 213.8 610.839 210.924 613.236C207.375 616.194 202.438 615.436 199.945 611.505C197.453 607.575 198.332 601.935 201.882 598.976Z" />
        <path d="M270.467 556.624C274.73 561.148 281.502 561.646 286.598 557.398C292.369 552.588 293.761 543.55 289.745 537.217C285.73 530.885 277.788 529.594 272.017 534.403C266.92 538.651 265.244 546.19 267.697 552.257C268.002 553.071 268.413 553.863 268.884 554.606C269.354 555.348 269.885 556.041 270.467 556.624ZM274.786 538.771C278.356 535.796 283.287 536.592 285.779 540.523C288.272 544.454 287.398 550.055 283.829 553.03C280.953 555.427 277.199 555.386 274.552 553.219C273.924 552.708 273.334 552.064 272.85 551.3C272.365 550.536 272.013 549.694 271.782 548.852C270.801 545.297 271.911 541.168 274.786 538.771Z" />
        <path d="M184.159 491.959C183.679 491.204 183.128 490.573 182.473 490.062L231.271 449.535L294.358 459.477L339.597 421.906C339.826 422.739 340.174 423.571 340.654 424.327C341.135 425.082 341.705 425.697 342.341 426.224L295.469 465.15L232.383 455.208L185.217 494.379C185.008 493.531 184.639 492.715 184.159 491.959Z" />
        <path d="M338.129 431.08C342.392 435.604 349.184 436.085 354.28 431.837C360.031 427.043 361.443 417.989 357.427 411.656C353.411 405.324 345.45 404.049 339.699 408.843C334.602 413.091 332.907 420.646 335.359 426.712C335.664 427.527 336.075 428.319 336.546 429.061C337.017 429.804 337.547 430.497 338.129 431.08ZM342.468 413.21C346.018 410.251 350.969 411.032 353.461 414.962C355.954 418.893 355.06 424.511 351.511 427.469C348.635 429.866 344.861 429.841 342.214 427.675C341.572 427.141 340.996 426.52 340.512 425.755C340.027 424.991 339.675 424.15 339.444 423.307C338.463 419.753 339.593 415.607 342.468 413.21Z" />
        <path d="M185.133 507.424C190.209 503.193 191.905 495.638 189.452 489.571C189.148 488.757 188.737 487.965 188.266 487.222C187.795 486.48 187.265 485.787 186.683 485.204C182.42 480.68 175.628 480.199 170.551 484.43C164.781 489.24 163.369 498.294 167.384 504.627C171.4 510.96 179.362 512.234 185.133 507.424ZM173.321 488.798C176.196 486.401 179.951 486.442 182.598 488.609C183.259 489.126 183.815 489.764 184.3 490.528C184.784 491.292 185.156 492.117 185.367 492.976C186.348 496.531 185.239 500.66 182.363 503.057C178.794 506.032 173.843 505.252 171.351 501.321C168.858 497.391 169.751 491.773 173.321 488.798Z" />
        <path d="M468.71 182.37L408.336 232.398L394.466 320.582L297.77 400.707L219.223 388.315L152.537 443.573C153.176 444.061 153.739 444.71 154.217 445.462C154.696 446.215 155.062 447.026 155.27 447.871L220.329 393.962L298.877 406.354L398.807 323.548L412.696 235.348L471.443 186.668L468.71 182.37Z" />
        <path d="M466.097 190.328C470.374 194.874 477.132 195.349 482.228 191.101C487.999 186.291 489.425 177.259 485.395 170.905C481.365 164.55 473.431 163.319 467.661 168.129C462.564 172.377 460.875 179.894 463.327 185.96C463.632 186.775 464.043 187.567 464.514 188.309C464.985 189.052 465.515 189.745 466.097 190.328ZM470.43 172.497C474 169.521 478.936 170.28 481.429 174.21C483.921 178.141 483.028 183.759 479.459 186.734C476.583 189.131 472.829 189.089 470.182 186.923C469.554 186.411 468.964 185.768 468.48 185.004C467.995 184.239 467.643 183.398 467.412 182.556C466.431 179.001 467.555 174.893 470.43 172.497Z" />
        <path d="M155.198 460.38C160.275 456.149 161.971 448.593 159.518 442.527C159.213 441.712 158.802 440.92 158.331 440.178C157.86 439.435 157.33 438.743 156.748 438.159C152.485 433.635 145.693 433.155 140.617 437.386C134.846 442.196 133.434 451.25 137.45 457.583C141.466 463.915 149.427 465.19 155.198 460.38ZM143.386 441.753C146.262 439.357 150.016 439.398 152.663 441.564C153.311 442.059 153.881 442.719 154.365 443.484C154.85 444.248 155.222 445.073 155.433 445.932C156.414 449.487 155.304 453.616 152.429 456.013C148.859 458.988 143.909 458.207 141.416 454.277C138.923 450.346 139.817 444.728 143.386 441.753Z" />
        <path d="M1.29692 638.716C0.817193 637.961 0.233232 637.326 -0.388157 636.821L63.4453 583.833L87.3265 431.576L219.061 322.226L261.267 328.898L266.103 329.66C265.752 330.478 265.476 331.366 265.334 332.275C265.172 333.2 265.162 334.13 265.299 335.006L260.429 334.238L220.171 327.892L91.6789 434.552L67.8174 586.793L2.35315 641.134C2.12473 640.302 1.77665 639.471 1.29692 638.716Z" />
        <path d="M269.67 348.94C273.139 349.486 276.502 348.385 279.179 346.154C281.856 343.923 283.827 340.577 284.424 336.642C285.67 328.761 281.045 321.467 274.121 320.396C270.672 319.833 267.275 320.928 264.598 323.16C262.536 324.879 260.922 327.258 260.008 330.023C259.736 330.884 259.511 331.772 259.367 332.693C259.224 333.614 259.148 334.545 259.165 335.433C259.247 342.207 263.554 347.996 269.67 348.94ZM264.116 333.442C264.26 332.521 264.538 331.621 264.891 330.793C265.485 329.53 266.316 328.403 267.367 327.527C269.093 326.089 271.19 325.476 273.278 325.805C277.555 326.479 280.421 331 279.675 335.894C279.29 338.251 278.135 340.349 276.41 341.787C274.685 343.225 272.588 343.837 270.514 343.53C267.065 342.967 264.522 339.913 264.082 336.207C263.944 335.321 263.953 334.379 264.116 333.442Z" />
        <path d="M4.05452 655.394C9.13111 651.162 10.8268 643.607 8.38794 637.562C8.08363 636.748 7.67238 635.956 7.20157 635.213C6.73076 634.471 6.20038 633.778 5.61845 633.195C1.34131 628.649 -5.45027 628.168 -10.5269 632.4C-16.2975 637.209 -17.7096 646.264 -13.68 652.618C-9.65034 658.973 -1.71615 660.203 4.05452 655.394ZM-7.75737 636.767C-4.88196 634.37 -1.11352 634.434 1.53338 636.6C2.16095 637.112 2.75082 637.755 3.23548 638.519C3.72014 639.283 4.07191 640.125 4.30287 640.967C5.28401 644.522 4.16044 648.63 1.28502 651.026C-2.28446 654.001 -7.22132 653.243 -9.71386 649.312C-12.2064 645.382 -11.3269 639.742 -7.75737 636.767Z" />
        <path d="M238.648 505.651L181.893 552.824L133.106 545.156L128.226 544.387C128.348 545.244 128.339 546.177 128.191 547.126C128.048 548.038 127.791 548.913 127.42 549.749L132.267 550.513L183.006 558.508L241.396 509.976L238.648 505.651Z" />
        <path d="M118.206 558.95C121.675 559.496 125.072 558.401 127.73 556.186C129.772 554.483 131.399 552.126 132.32 549.323C132.626 548.467 132.837 547.556 132.98 546.636C133.124 545.715 133.18 544.8 133.163 543.913C133.095 537.161 128.787 531.372 122.678 530.389C119.209 529.842 115.825 530.96 113.148 533.191C110.471 535.423 108.52 538.751 107.904 542.703C106.691 550.59 111.302 557.862 118.206 558.95ZM112.672 543.435C113.037 541.095 114.192 538.997 115.918 537.559C117.643 536.121 119.76 535.491 121.814 535.815C125.263 536.378 127.806 539.433 128.246 543.138C128.37 544.003 128.361 544.945 128.212 545.904C128.068 546.825 127.81 547.708 127.436 548.553C126.862 549.799 126.011 550.942 124.96 551.818C123.235 553.256 121.138 553.869 119.07 553.524C116.982 553.195 115.172 551.966 113.967 550.066C112.763 548.166 112.301 545.814 112.672 543.435Z" />
        <path d="M237.186 514.573C241.463 519.119 248.241 519.578 253.337 515.33C259.088 510.536 260.513 501.504 256.484 495.15C252.454 488.795 244.52 487.564 238.769 492.358C233.673 496.606 231.964 504.139 234.416 510.205C234.721 511.02 235.132 511.812 235.603 512.554C236.073 513.297 236.604 513.99 237.186 514.573ZM241.539 496.725C245.108 493.75 250.025 494.525 252.518 498.455C255.01 502.386 254.137 507.987 250.567 510.962C247.692 513.359 243.918 513.334 241.271 511.168C240.629 510.634 240.053 510.013 239.569 509.249C239.084 508.484 238.746 507.665 238.501 506.8C237.52 503.246 238.664 499.122 241.539 496.725Z" />
        <path d="M-107.437 393.42C-107.918 392.663 -108.503 392.026 -109.125 391.52L-8.36557 307.788L132.118 329.943L224.061 253.538L262.834 259.667L267.679 260.431C267.328 261.251 267.051 262.141 266.909 263.052C266.766 263.964 266.757 264.896 266.874 265.79L261.995 265.021L225.174 259.219L133.251 335.608L-7.25227 313.469L-106.378 395.843C-106.607 395.01 -106.956 394.176 -107.437 393.42Z" />
        <path d="M272.441 282.192C275.91 282.739 279.274 281.638 281.951 279.407C284.628 277.175 286.579 273.847 287.195 269.895C288.428 261.992 283.817 254.72 276.879 253.627C273.424 253.102 270.047 254.181 267.369 256.412C265.307 258.131 263.694 260.511 262.78 263.276C262.493 264.115 262.269 265.003 262.125 265.924C261.981 266.845 261.905 267.776 261.936 268.685C262.018 275.459 266.312 281.226 272.441 282.192ZM266.887 266.694C267.031 265.773 267.309 264.874 267.663 264.045C268.257 262.783 269.088 261.656 270.139 260.78C271.864 259.342 273.961 258.729 276.049 259.058C278.104 259.382 279.913 260.61 281.132 262.532C282.35 264.454 282.798 266.784 282.433 269.125C282.062 271.503 280.907 273.601 279.181 275.039C277.456 276.477 275.359 277.09 273.271 276.761C271.217 276.437 269.407 275.209 268.202 273.309C267.468 272.151 267 270.839 266.853 269.46C266.735 268.557 266.744 267.615 266.887 266.694Z" />
        <path d="M42.6064 276.471C42.9915 275.653 43.2684 274.76 43.3975 273.825C43.5404 272.91 43.5632 271.997 43.4657 271.084L109.167 281.434L151.881 245.897C152.091 246.75 152.461 247.569 152.943 248.328C153.424 249.087 153.977 249.72 154.635 250.233L110.283 287.132L47.4955 277.241L42.6064 276.471Z" />
        <path d="M33.4215 285.564C36.8903 286.111 40.2736 284.993 42.9309 282.778C44.9735 281.076 46.6006 278.718 47.5346 275.937C47.8406 275.081 48.0517 274.171 48.1953 273.25C48.3388 272.329 48.3951 271.415 48.3644 270.506C48.2821 263.731 43.9884 257.964 37.8788 256.982C34.4238 256.457 31.0266 257.553 28.3494 259.784C25.6723 262.015 23.7351 265.366 23.105 269.296C21.8923 277.182 26.5036 284.454 33.4215 285.564ZM27.8873 270.049C28.2384 267.687 29.3937 265.589 31.1189 264.151C32.8442 262.713 34.9609 262.084 37.0292 262.43C39.1172 262.759 40.927 263.987 42.1317 265.887C42.8656 267.044 43.3141 268.373 43.4811 269.736C43.5793 270.655 43.5564 271.576 43.4129 272.496C43.2831 273.439 43.0048 274.339 42.6176 275.162C42.0576 276.43 41.2124 277.535 40.1614 278.411C38.4361 279.849 36.3392 280.462 34.271 280.116C29.974 279.459 27.1076 274.938 27.8873 270.049Z" />
        <path d="M150.424 254.933C154.687 259.457 161.479 259.938 166.555 255.707C172.326 250.897 173.738 241.843 169.722 235.51C165.706 229.177 157.745 227.903 151.974 232.713C146.897 236.944 145.201 244.499 147.654 250.566C147.958 251.38 148.37 252.172 148.841 252.915C149.311 253.657 149.842 254.35 150.424 254.933ZM154.743 237.08C158.313 234.105 163.263 234.885 165.756 238.816C168.249 242.746 167.355 248.364 163.786 251.34C160.91 253.736 157.156 253.695 154.509 251.528C153.847 251.011 153.291 250.373 152.807 249.609C152.322 248.845 151.95 248.02 151.739 247.161C150.758 243.606 151.868 239.477 154.743 237.08Z" />
        <path d="M-20.2241 527.117C-20.7013 526.367 -21.2823 525.735 -21.9144 525.211L24.6967 486.644L27.4238 490.931L-19.1872 529.498C-19.4142 528.672 -19.7605 527.846 -20.2241 527.117Z" />
        <path d="M23.2126 494.582C27.4897 499.128 34.2813 499.609 39.3778 495.361C45.1286 490.568 46.5406 481.514 42.5249 475.181C38.5091 468.849 30.5472 467.574 24.7964 472.367C19.7198 476.599 18.0102 484.132 20.4431 490.215C20.7613 491.051 21.1587 491.822 21.6433 492.586C22.128 493.35 22.6307 493.999 23.2126 494.582ZM27.5659 476.735C31.1354 473.759 36.0662 474.556 38.5588 478.487C41.0513 482.418 40.1777 488.019 36.6083 490.994C33.7328 493.391 29.9446 493.344 27.2977 491.178C26.6701 490.666 26.0802 490.023 25.6094 489.28C25.1386 488.538 24.773 487.674 24.5282 486.81C23.5669 483.239 24.6905 479.131 27.5659 476.735Z" />
    </symbol>

    <symbol
      id="circuits-glass"
      fill-opacity="0.2"
    >
        <use href="#circuits"></use>
    </symbol>

    <symbol
      id="chevron"
      viewBox="0 0 11 18"
      style="stroke: currentColor;"
    >
        <path d="M9 16.6997L1.65016 9.34984L9 2" stroke-width="2.5" stroke-linecap="round" stroke-linejoin="round" fill="none" />
    </symbol>

  </defs>
</svg>
