<?xml version="1.0" encoding="UTF-8"?>
<svg width="550" height="414" viewBox="0 0 550 414" fill="currentColor" xmlns="http://www.w3.org/2000/svg" id="root">
    <path d="M335.213 15.3702C335.159 16.2571 335.258 17.1089 335.464 17.8783L256.613 22.915C256.914 22.1133 257.119 21.2421 257.172 20.3552C257.226 19.4683 257.127 18.6165 256.921 17.8472L335.772 12.8104C335.471 13.6121 335.266 14.4833 335.213 15.3702Z" />
    <path d="M344.231 1.30994C337.612 1.75807 331.804 6.87982 330.231 13.2054C329.999 14.0435 329.868 14.9261 329.813 15.8036C329.759 16.681 329.781 17.5533 329.91 18.3669C330.705 24.5579 335.922 28.9333 342.541 28.4852C350.011 27.9795 356.468 21.4774 356.935 13.9674C357.402 6.4575 351.7 0.804256 344.231 1.30994ZM342.862 23.3237C339.128 23.5765 336.088 21.3152 335.216 18.0077C335.008 17.2251 334.908 16.3581 334.964 15.4548C335.021 14.5516 335.23 13.6637 335.537 12.8462C336.829 9.3922 340.175 6.72425 343.91 6.47141C348.521 6.15928 352.072 9.67086 351.784 14.3162C351.495 18.9615 347.473 23.0116 342.862 23.3237Z" />
    <path d="M262.475 17.3603C261.679 11.1951 256.488 6.81786 249.868 7.26601C242.373 7.77344 235.942 14.2738 235.476 21.7581C235.011 29.2423 240.683 34.9489 248.179 34.4415C254.798 33.9934 260.58 28.8733 262.154 22.5218C262.386 21.6838 262.518 20.8011 262.573 19.9236C262.627 19.0462 262.604 18.1739 262.475 17.3603ZM248.5 29.28C243.863 29.5939 240.339 26.0547 240.628 21.4093C240.916 16.7639 244.911 12.7414 249.548 12.4275C253.282 12.1747 256.298 14.412 257.17 17.7195C257.377 18.5021 257.477 19.3691 257.421 20.2724C257.365 21.1756 257.156 22.0636 256.849 22.881C255.557 26.3351 252.234 29.0271 248.5 29.28Z" />
    <path d="M294.402 120.372C294.348 121.265 294.424 122.099 294.654 122.898L231.359 127.069L186.116 81.9936L127.437 85.8611C127.741 85.0528 127.947 84.1747 128.002 83.2812C128.056 82.3876 127.955 81.5552 127.75 80.755L188.546 76.748L233.788 121.824L294.967 117.792C294.638 118.602 294.457 119.478 294.402 120.372Z" />
    <path d="M134.01 79.2955C133.213 73.1303 127.997 68.7549 121.377 69.203C113.908 69.7087 107.45 76.2108 106.985 83.6949C106.52 91.1791 112.218 96.8839 119.687 96.3782C126.307 95.9301 132.114 90.8084 133.689 84.457C133.92 83.6189 134.052 82.7362 134.107 81.8588C134.161 80.9813 134.139 80.1091 134.01 79.2955ZM120.008 91.2167C115.398 91.5288 111.848 87.9915 112.136 83.3462C112.425 78.7009 116.446 74.6766 121.056 74.3645C124.791 74.1117 127.832 76.3472 128.704 79.6547C128.91 80.4631 129.012 81.3043 128.955 82.2075C128.899 83.1108 128.69 83.9987 128.383 84.8162C127.091 88.2702 123.743 90.9639 120.008 91.2167Z" />
    <path d="M302.691 107.279C296.097 107.725 290.29 112.847 288.715 119.199C288.483 120.037 288.351 120.919 288.297 121.797C288.242 122.674 288.265 123.546 288.394 124.36C289.19 130.525 294.407 134.901 301.001 134.454C308.496 133.947 314.953 127.445 315.419 119.961C315.884 112.476 310.186 106.772 302.691 107.279ZM301.322 129.293C297.587 129.546 294.571 127.308 293.7 124.001C293.468 123.194 293.392 122.351 293.448 121.448C293.504 120.545 293.688 119.659 294.021 118.839C295.313 115.385 298.635 112.693 302.37 112.441C307.006 112.127 310.556 115.664 310.267 120.309C309.978 124.955 305.958 128.979 301.322 129.293Z" />
    <path d="M-117.686 204.023L-39.443 198.952L23.5435 135.695L148.86 127.574L205.183 183.707L291.606 178.107C291.375 177.337 291.301 176.481 291.355 175.591C291.409 174.701 291.589 173.829 291.916 173.022L207.601 178.486L151.278 122.353L21.7701 130.745L-41.2419 194.005L-117.377 198.938L-117.686 204.023Z" />
    <path d="M299.316 162.937C292.722 163.384 286.915 168.505 285.34 174.857C285.108 175.695 284.976 176.577 284.922 177.455C284.867 178.332 284.89 179.204 285.019 180.018C285.815 186.183 291.032 190.559 297.626 190.112C305.121 189.605 311.578 183.103 312.044 175.619C312.509 168.135 306.811 162.43 299.316 162.937ZM297.947 184.951C294.212 185.204 291.196 182.966 290.325 179.659C290.091 178.878 290.017 178.009 290.073 177.106C290.129 176.203 290.313 175.317 290.646 174.497C291.938 171.043 295.26 168.351 298.995 168.099C303.631 167.785 307.181 171.322 306.892 175.967C306.603 180.613 302.583 184.637 297.947 184.951Z" />
    <path d="M528.59 108.875C528.536 109.767 528.635 110.624 528.842 111.398L446.06 116.835L337.363 226.093L166.525 237.312L136.269 207.139L132.801 203.683C133.565 203.226 134.309 202.669 134.958 202.017C135.632 201.363 136.186 200.616 136.589 199.827L140.081 203.306L168.952 232.072L335.586 221.129L444.257 111.872L529.154 106.297C528.851 107.105 528.645 107.982 528.59 108.875Z" />
    <path d="M141.228 185.979C138.741 183.501 135.371 182.418 131.894 182.654C128.417 182.889 124.858 184.441 122.065 187.277C116.43 192.926 115.894 201.546 120.871 206.477C123.333 208.958 126.727 210.064 130.204 209.829C132.883 209.647 135.585 208.668 137.948 206.966C138.674 206.428 139.378 205.841 140.034 205.18C140.691 204.519 141.299 203.809 141.806 203.081C145.715 197.548 145.626 190.333 141.228 185.979ZM136.629 201.787C135.972 202.448 135.219 203.013 134.446 203.477C133.225 204.15 131.89 204.575 130.525 204.667C128.284 204.819 126.227 204.085 124.729 202.593C121.662 199.537 121.994 194.194 125.471 190.67C127.165 188.987 129.332 187.967 131.573 187.815C133.814 187.663 135.871 188.398 137.37 189.864C139.832 192.344 140.099 196.31 138.28 199.568C137.871 200.367 137.311 201.124 136.629 201.787Z" />
    <path d="M536.146 93.753C529.552 94.1994 523.745 99.3211 522.172 105.647C521.94 106.485 521.808 107.367 521.754 108.245C521.699 109.122 521.722 109.995 521.851 110.808C522.646 116.999 527.862 121.375 534.456 120.928C541.951 120.421 548.408 113.919 548.875 106.409C549.342 98.8988 543.641 93.2455 536.146 93.753ZM534.777 115.767C531.042 116.019 528.028 113.756 527.157 110.449C526.949 109.666 526.849 108.799 526.905 107.896C526.961 106.993 527.17 106.105 527.478 105.287C528.77 101.833 532.09 99.1673 535.825 98.9144C540.461 98.6006 544.013 102.112 543.724 106.757C543.435 111.403 539.413 115.453 534.777 115.767Z" />
    <path d="M258.321 77.3059L331.959 72.4227L366.959 107.264L370.459 110.751C370.862 109.986 371.417 109.236 372.095 108.554C372.746 107.899 373.467 107.342 374.258 106.882L370.782 103.419L334.393 67.167L258.635 72.1908L258.321 77.3059Z" />
    <path d="M387.117 104.841C384.629 102.362 381.236 101.256 377.784 101.489C375.131 101.669 372.43 102.623 370.04 104.352C369.29 104.866 368.585 105.479 367.928 106.14C367.272 106.801 366.689 107.509 366.182 108.237C362.275 113.744 362.364 120.959 366.734 125.341C369.222 127.819 372.617 128.9 376.095 128.665C379.572 128.429 383.105 126.88 385.923 124.042C391.534 118.368 392.068 109.774 387.117 104.841ZM382.492 120.65C380.823 122.331 378.656 123.352 376.416 123.503C374.175 123.655 372.091 122.922 370.618 121.454C368.156 118.974 367.89 115.009 369.708 111.75C370.115 110.978 370.676 110.22 371.36 109.531C372.016 108.87 372.744 108.307 373.542 107.842C374.738 107.17 376.098 106.743 377.463 106.651C379.704 106.499 381.762 107.234 383.233 108.727C384.731 110.219 385.475 112.276 385.335 114.522C385.196 116.767 384.188 118.942 382.492 120.65Z" />
    <path d="M264.741 70.9403C263.946 64.7494 258.728 60.3998 252.108 60.848C244.639 61.3536 238.183 67.8298 237.716 75.3397C237.25 82.8496 242.951 88.5028 250.42 87.9971C257.04 87.549 262.845 82.4531 264.42 76.1018C264.652 75.2637 264.783 74.381 264.838 73.5036C264.893 72.6262 264.87 71.754 264.741 70.9403ZM250.741 82.8357C246.105 83.1495 242.579 79.6362 242.868 74.991C243.157 70.3457 247.151 66.3232 251.787 66.0094C255.522 65.7565 258.563 67.992 259.435 71.2995C259.641 72.1079 259.743 72.9491 259.687 73.8523C259.631 74.7556 259.423 75.6177 259.114 76.461C257.822 79.9149 254.476 82.5828 250.741 82.8357Z" />
    <path d="M472.657 371.295C472.602 372.19 472.702 373.049 472.908 373.825L342.185 382.48L241.446 282.091L122.162 289.989L94.3661 262.271L90.8915 258.809C91.657 258.351 92.4033 257.792 93.0537 257.138C93.7041 256.484 94.2587 255.735 94.6887 254.942L98.1873 258.428L124.595 284.736L243.854 276.84L344.618 377.227L473.222 368.712C472.918 369.521 472.712 370.401 472.657 371.295Z" />
    <path d="M99.8083 238.395C97.3207 235.916 93.9511 234.834 90.474 235.069C86.9968 235.304 83.4636 236.854 80.6454 239.692C75.0089 245.368 74.4745 253.961 79.4498 258.919C81.9391 261.371 85.3071 262.48 88.7842 262.244C91.4629 262.063 94.1656 261.083 96.5284 259.381C97.2527 258.87 97.9562 258.282 98.6128 257.621C99.2695 256.96 99.8778 256.251 100.386 255.497C104.296 249.964 104.204 242.774 99.8083 238.395ZM95.209 254.202C94.5523 254.864 93.7991 255.429 93.0264 255.892C91.8047 256.566 90.4703 256.99 89.1052 257.083C86.8643 257.234 84.8068 256.5 83.3094 255.008C81.8362 253.54 81.092 251.483 81.2332 249.212C81.3744 246.941 82.3802 244.791 84.0492 243.111C85.7456 241.403 87.9122 240.382 90.153 240.23C92.3939 240.079 94.4514 240.813 95.9488 242.305C97.4221 243.773 98.1661 245.83 98.0265 248.075C97.9415 249.443 97.5506 250.78 96.8602 251.983C96.4257 252.784 95.8657 253.541 95.209 254.202Z" />
    <path d="M479.677 359.978C473.083 360.424 467.278 365.52 465.703 371.871C465.471 372.709 465.339 373.592 465.285 374.47C465.23 375.347 465.253 376.219 465.382 377.033C466.177 383.224 471.395 387.573 477.989 387.127C485.484 386.619 491.939 380.143 492.406 372.633C492.873 365.124 487.172 359.47 479.677 359.978ZM478.31 381.965C474.575 382.218 471.559 379.981 470.688 376.674C470.48 375.891 470.38 375.024 470.436 374.121C470.492 373.218 470.701 372.33 471.009 371.512C472.301 368.058 475.621 365.392 479.356 365.139C483.992 364.825 487.544 368.337 487.255 372.982C486.966 377.627 482.946 381.652 478.31 381.965Z" />
    <path d="M282.536 377.92C281.745 378.356 280.996 378.917 280.343 379.599C279.69 380.255 279.136 380.981 278.679 381.778L231.559 334.836L176.118 338.539C176.448 337.726 176.63 336.846 176.685 335.948C176.74 335.051 176.665 334.214 176.434 333.412L233.999 329.568L279.03 374.427L282.536 377.92Z" />
    <path d="M295.309 375.949C292.822 373.47 289.426 372.389 285.975 372.623C283.322 372.803 280.621 373.757 278.232 375.46C277.482 375.974 276.777 376.587 276.12 377.248C275.464 377.909 274.881 378.617 274.373 379.371C270.463 384.904 270.555 392.093 274.925 396.475C277.414 398.927 280.808 400.034 284.285 399.798C287.762 399.563 291.297 397.987 294.114 395.175C299.724 389.502 300.259 380.908 295.309 375.949ZM290.684 391.758C289.013 393.465 286.847 394.485 284.606 394.637C282.365 394.789 280.282 394.056 278.81 392.562C277.313 391.07 276.569 389.013 276.708 386.768C276.793 385.4 277.21 384.061 277.875 382.86C278.335 382.058 278.893 381.326 279.55 380.665C280.208 379.978 280.962 379.413 281.758 378.973C282.956 378.276 284.289 377.877 285.654 377.785C287.895 377.633 289.952 378.367 291.424 379.861C294.517 382.915 294.185 388.258 290.684 391.758Z" />
    <path d="M182.601 332.079C181.805 325.914 176.588 321.538 169.995 321.985C162.499 322.492 156.042 328.994 155.577 336.479C155.111 343.963 160.81 349.667 168.305 349.16C174.899 348.714 180.706 343.592 182.281 337.241C182.512 336.403 182.644 335.52 182.699 334.642C182.753 333.765 182.73 332.893 182.601 332.079ZM168.626 343.999C163.99 344.312 160.439 340.775 160.728 336.13C161.017 331.484 165.037 327.46 169.674 327.146C173.408 326.894 176.424 329.131 177.296 332.438C177.528 333.245 177.603 334.088 177.547 334.991C177.491 335.894 177.308 336.781 176.975 337.6C175.683 341.054 172.361 343.746 168.626 343.999Z" />
    <path d="M480.516 211.862C480.462 212.749 480.561 213.601 480.765 214.397L420.391 218.266L420.699 213.194L481.074 209.325C480.772 210.127 480.568 210.999 480.516 211.862Z" />
    <path d="M426.252 212.71C425.457 206.519 420.241 202.143 413.621 202.591C406.152 203.097 399.695 209.599 399.229 217.083C398.764 224.567 404.462 230.272 411.932 229.766C418.525 229.32 424.331 224.224 425.931 217.871C426.165 217.007 426.295 216.15 426.351 215.247C426.407 214.344 426.381 213.523 426.252 212.71ZM412.252 224.605C407.616 224.919 404.092 221.38 404.381 216.734C404.669 212.089 408.664 208.067 413.3 207.753C417.035 207.5 420.075 209.761 420.946 213.069C421.154 213.851 421.254 214.718 421.2 215.596C421.145 216.473 420.934 217.387 420.625 218.23C419.308 221.686 415.987 224.352 412.252 224.605Z" />
    <path d="M489.511 197.802C482.917 198.248 477.11 203.37 475.535 209.721C475.304 210.559 475.173 211.416 475.119 212.294C475.064 213.171 475.087 214.043 475.214 214.883C476.035 221.072 481.253 225.422 487.821 224.977C495.316 224.47 501.774 217.968 502.241 210.458C502.707 202.948 497.006 197.294 489.511 197.802ZM488.142 219.816C484.407 220.068 481.392 217.831 480.52 214.524C480.314 213.715 480.214 212.848 480.27 211.945C480.326 211.042 480.534 210.18 480.841 209.362C482.133 205.908 485.455 203.216 489.19 202.963C493.826 202.65 497.376 206.187 497.089 210.806C496.802 215.426 492.778 219.502 488.142 219.816Z" />
</svg>
